<svg height="3.5in" preserveAspectRatio="none" viewBox="-120 -168 240 336" width="2.5in" xmlns="http://www.w3.org/2000/svg"><rect fill="#fff" height="335" rx="12" stroke="#000" width="239" x="-119.5" y="-167.5"/><path d="m-108.047-156.983h216.095v313.967h-216.095z"/><g fill="none" stroke="#fff" stroke-linecap="square" stroke-width=".674"><path d="m0 0v-1h1v1h1v-1-1h1v1h1 1v-1h1v-1h1v-1h1v1 1 1 1h1v-1-1-1h1v-1-1h1 1 1v-1h-1-1-1v-1h-1v1h-1v1h-1v-1-1h-1v-1-1h1v-1-1-1h-1v-1h1v-1-1-1h-1v-1-1h1 1v1h-1m1 0v1h1v-1-1h1v1h1v-1h1v1 1h-1-1v1h1v1h-1-1v1h-1v1 1 1 1h1v-1h1 1v1h-1v1h-1-1-1m1 0v1m2-1h1v1h1v-1h1v-1h1v-1h-1v-1-1h-1-1v1h-1v-1h-1v1m1-1v-1h1 1 1v-1h1v1h1 1v1h1v-1-1-1-1-1h-1v-1h-1-1v-1h1v-1-1-1h1v1 1h1v-1-1-1h-1-1v-1h1v-1h-1-1-1v1h1v1 1 1 1h-1v-1h-1v1h-1v1h-1-1-1-1-1v-1-1h-1-1v-1h1v-1h1 1v-1-1h-1v1h-1-1v1h-1v1 1 1h-1v1h1v1h-1v1h-1-1v-1h1v-1-1-1-1-1h1v1 1m0-2v-1h-1v-1h1 1v1m0-1h1 1m-4 0h-1v1h-1v-1h-1v1h-1-1v-1h1m-1 0h-1-1v1h1v1h1 1 1 1v1h1v-1m0 1v1h-1v1h-1v1h1v1h-1v1 1h-1v1 1h-1v1h1v1h1 1v1h-1v1h1v1h-1-1v-1-1h-1v-1h-1-1v-1-1h-1v1h-1v-1-1-1h-1v1 1h-1v1h-1v1h1 1 1 1v1 1h-1v-1h-1-1-1-1-1v1h1v1h-1-1v1h-1-1v1h-1v-1-1h1 1v-1h-1-1v-1h1v-1h-1v-1-1h1 1 1v-1h1v1 1 1h1v-1-1-1h1v-1-1h-1v1h-1-1-1v-1-1h1v1h1v-1h1 1 1 1v1h-1v1 1m1-2h1 1v-1-1-1h-1v-1-1h-1-1v1h-1v1h1v1h1v-1-1m0 2h1v1m-2-1h-1-1-1v-1h1v-1-1-1h1v-1h1 1v-1h-1-1-1-1-1-1-1v1h-1v1 1h1 1v1h-1-1v1 1h1v-1h1 1v-1h1v-1h-1v-1h-1-1m1 0v-1h1 1v1m0-1h1m-2 4v1h-1m-1 0v1 1 1 1h1m-1 0h-1v-1-1-1m0-6v-1m8 0h1v1h1v-1m0 1v1h-1-1-1m3 0v1 1h1 1v-1h-1v-1m1 1h1v1h1 1v-1h-1m0 1v1h-1v1h1v1 1h-1v1 1h-1v-1-1h-1v-1-1h1v-1h-1m1 1v1h1m-2 1v1 1h-1v-1m2 1v1 1m-6-10v1m0 7v1m-2 2h-1v-1h-1-1m1 0v1 1h1v1m-3 3v1 1 1h1v1h1v-1-1h-1v-1h1v-1h1 1v1h-1v1 1h1v-1h1v1 1 1h1v-1h1v1 1h1 1 1v1 1 1m0-1h1v-1h1v-1h-1v-1-1h1v1h1v-1-1h1 1v-1h1v1h1v-1h1v1h1v-1-1h-1-1v-1-1-1-1-1h1 1 1 1 1v-1-1h-1v1h-1v-1-1h1v-1h-1v-1h-1v1h-1v-1h-1v1 1 1h-1v-1h-1v-1h1v-1-1m-1 3v1m2 0v1h1 1v-1-1h-1v1m2-3v-1h1 1v-1-1-1h-1v1 1m1 1v1 1h1v1h-1m0-2h-1m1 5v1h1v-1m-1 1v1 1 1 1 1h1v-1m0 1v1h-1v1h-1v-1h-1v1h-1-1v1h-1-1v1h-1v-1h-1v1h-1v1h1m0-2v-1h1 1 1m3-1v-1-1-1-1h-1-1v-1-1h1 1v1h1v-1m0 1v1 1 1 1m-1-4h-1m-1 1v1h1m2 4v1m-4-6h-1v1 1h-1v-1-1h-1-1v1 1h-1v-1-1h-1v-1h1v-1-1h-1v1m1 0h1v1m-2 0h-1v1 1h-1v-1-1h-1v-1h-1v1h-1v-1m0 1v1h1v1h1v1h1 1 1v-1m0 1v1 1h-1-1v1h1v1h-1-1v-1-1h-1-1v-1h1v-1h-1v-1h-1v-1h-1m1 1v1m2 1h1 1 1m1 1h1v-1h1 1v-1-1m-6 0v-1m-1 7h-1v1h1v1 1h-1-1v1h-1v-1-1h-1-1-1-1v1 1h1v1h1v-1h1v-1h-1-1m2 1v1 1h-1-1v1h1v1h-1v1h1 1v-1-1m0 1h1m-2 1v1 1h-1v1h-1v-1-1h1m-1 0v-1-1-1-1-1m1 7h1 1v1h-1m1-8h1 1 1v-1m-6-2v-1-1-1-1m0 1h1 1v1h-1v1h1 1v-1-1-1h1v1 1h1v1h-1m1 0v1h1m2-13v-1m8-6h1v-1m7-5h1 1v1h1v1h1v-1h1v1 1h1v-1m-1 1h-1-1v1h-1v-1h-1-1v1 1h1v-1m0 1h1 1m-3-2h-1m2 0v-1h1m-1 0v-1m2 3h1m1-3v-1h-1-1m1 6h1 1v1 1h1v1h1 1v1h-1v1h1m-1-1h-1-1v-1m0 1h-1v1m3-2v-1m1-8h1v1m0 4v1 1m0-1h-1m-5 8h1v1 1m-4-4v-1-1h1m-1 10h1v1" transform="scale(6.117)"/><path d="m0 0v-1h1v1h1v-1-1h1v1h1 1v-1h1v-1h1v-1h1v1 1 1 1h1v-1-1-1h1v-1-1h1 1 1v-1h-1-1-1v-1h-1v1h-1v1h-1v-1-1h-1v-1-1h1v-1-1-1h-1v-1h1v-1-1-1h-1v-1-1h1 1v1h-1m1 0v1h1v-1-1h1v1h1v-1h1v1 1h-1-1v1h1v1h-1-1v1h-1v1 1 1 1h1v-1h1 1v1h-1v1h-1-1-1m1 0v1m2-1h1v1h1v-1h1v-1h1v-1h-1v-1-1h-1-1v1h-1v-1h-1v1m1-1v-1h1 1 1v-1h1v1h1 1v1h1v-1-1-1-1-1h-1v-1h-1-1v-1h1v-1-1-1h1v1 1h1v-1-1-1h-1-1v-1h1v-1h-1-1-1v1h1v1 1 1 1h-1v-1h-1v1h-1v1h-1-1-1-1-1v-1-1h-1-1v-1h1v-1h1 1v-1-1h-1v1h-1-1v1h-1v1 1 1h-1v1h1v1h-1v1h-1-1v-1h1v-1-1-1-1-1h1v1 1m0-2v-1h-1v-1h1 1v1m0-1h1 1m-4 0h-1v1h-1v-1h-1v1h-1-1v-1h1m-1 0h-1-1v1h1v1h1 1 1 1v1h1v-1m0 1v1h-1v1h-1v1h1v1h-1v1 1h-1v1 1h-1v1h1v1h1 1v1h-1v1h1v1h-1-1v-1-1h-1v-1h-1-1v-1-1h-1v1h-1v-1-1-1h-1v1 1h-1v1h-1v1h1 1 1 1v1 1h-1v-1h-1-1-1-1-1v1h1v1h-1-1v1h-1-1v1h-1v-1-1h1 1v-1h-1-1v-1h1v-1h-1v-1-1h1 1 1v-1h1v1 1 1h1v-1-1-1h1v-1-1h-1v1h-1-1-1v-1-1h1v1h1v-1h1 1 1 1v1h-1v1 1m1-2h1 1v-1-1-1h-1v-1-1h-1-1v1h-1v1h1v1h1v-1-1m0 2h1v1m-2-1h-1-1-1v-1h1v-1-1-1h1v-1h1 1v-1h-1-1-1-1-1-1-1v1h-1v1 1h1 1v1h-1-1v1 1h1v-1h1 1v-1h1v-1h-1v-1h-1-1m1 0v-1h1 1v1m0-1h1m-2 4v1h-1m-1 0v1 1 1 1h1m-1 0h-1v-1-1-1m0-6v-1m8 0h1v1h1v-1m0 1v1h-1-1-1m3 0v1 1h1 1v-1h-1v-1m1 1h1v1h1 1v-1h-1m0 1v1h-1v1h1v1 1h-1v1 1h-1v-1-1h-1v-1-1h1v-1h-1m1 1v1h1m-2 1v1 1h-1v-1m2 1v1 1m-6-10v1m0 7v1m-2 2h-1v-1h-1-1m1 0v1 1h1v1m-3 3v1 1 1h1v1h1v-1-1h-1v-1h1v-1h1 1v1h-1v1 1h1v-1h1v1 1 1h1v-1h1v1 1h1 1 1v1 1 1m0-1h1v-1h1v-1h-1v-1-1h1v1h1v-1-1h1 1v-1h1v1h1v-1h1v1h1v-1-1h-1-1v-1-1-1-1-1h1 1 1 1 1v-1-1h-1v1h-1v-1-1h1v-1h-1v-1h-1v1h-1v-1h-1v1 1 1h-1v-1h-1v-1h1v-1-1m-1 3v1m2 0v1h1 1v-1-1h-1v1m2-3v-1h1 1v-1-1-1h-1v1 1m1 1v1 1h1v1h-1m0-2h-1m1 5v1h1v-1m-1 1v1 1 1 1 1h1v-1m0 1v1h-1v1h-1v-1h-1v1h-1-1v1h-1-1v1h-1v-1h-1v1h-1v1h1m0-2v-1h1 1 1m3-1v-1-1-1-1h-1-1v-1-1h1 1v1h1v-1m0 1v1 1 1 1m-1-4h-1m-1 1v1h1m2 4v1m-4-6h-1v1 1h-1v-1-1h-1-1v1 1h-1v-1-1h-1v-1h1v-1-1h-1v1m1 0h1v1m-2 0h-1v1 1h-1v-1-1h-1v-1h-1v1h-1v-1m0 1v1h1v1h1v1h1 1 1v-1m0 1v1 1h-1-1v1h1v1h-1-1v-1-1h-1-1v-1h1v-1h-1v-1h-1v-1h-1m1 1v1m2 1h1 1 1m1 1h1v-1h1 1v-1-1m-6 0v-1m-1 7h-1v1h1v1 1h-1-1v1h-1v-1-1h-1-1-1-1v1 1h1v1h1v-1h1v-1h-1-1m2 1v1 1h-1-1v1h1v1h-1v1h1 1v-1-1m0 1h1m-2 1v1 1h-1v1h-1v-1-1h1m-1 0v-1-1-1-1-1m1 7h1 1v1h-1m1-8h1 1 1v-1m-6-2v-1-1-1-1m0 1h1 1v1h-1v1h1 1v-1-1-1h1v1 1h1v1h-1m1 0v1h1m2-13v-1m8-6h1v-1m7-5h1 1v1h1v1h1v-1h1v1 1h1v-1m-1 1h-1-1v1h-1v-1h-1-1v1 1h1v-1m0 1h1 1m-3-2h-1m2 0v-1h1m-1 0v-1m2 3h1m1-3v-1h-1-1m1 6h1 1v1 1h1v1h1 1v1h-1v1h1m-1-1h-1-1v-1m0 1h-1v1m3-2v-1m1-8h1v1m0 4v1 1m0-1h-1m-5 8h1v1 1m-4-4v-1-1h1m-1 10h1v1" transform="scale(-6.117)"/></g></svg>